<svg xmlns="http://www.w3.org/2000/svg" width="92.685" height="33.867" viewBox="0 0 92.685 33.867">
  <path id="パス_318" data-name="パス 318" d="M71.8,25.884c3.008,1.646,6.464,3.435,9.967,2.4s6.771-4.23,9.7-6.576a.778.778,0,0,1,1.04.059h0a.591.591,0,0,1,.08.736c-1.148,1.739-7.544,5.722-8.822,6.235a12.581,12.581,0,0,1-9.255.17c-.95-.316-2.9-1.649-3.54-1.7-1.244-.108-4.063,2.828-5.759,2.355-1.919-.532.808-3.478.548-4.592l-11.523,4.58h0a1.753,1.753,0,0,1-2.191-1.866c.149-1.482.52-3.036.718-4.261C50.5,24.866,47.212,29.26,44.575,29.8c-3.224.662-2.72-3.775-.938-5.3.043-.244-.272-.173-.464-.158-1.281.09-6.752,3.261-8.742,3.948-2.491.86-6.956,2.51-8.64-.486a5.336,5.336,0,0,1-.408-2.844A1.015,1.015,0,0,0,24.125,24L11.636,27.1c-.288.9-.167,1.7-.467,2.686C9.674,34.65.5,35,.774,31.745c.232-2.708,6.248-4.388,8.513-4.926.631-.637-1.751-4.6-2.212-5.353C5.221,18.423-.723,12,.069,8.472c.969-4.314,12.263-3.311,15.2-1.408a4.1,4.1,0,0,1,2,4.047c-.229,1.532-2.615,5.431-4.119,5.8-.415.1-1.272.214-1.068-.449,3.441-3.806,6.634-8.16-.817-9.4C9.318,6.73,2.018,6.092,1.313,8.472c-.439,1.476.628,3.692,1.362,5.007,2.355,4.227,6.5,7.69,8.209,12.365.6.381,10.734-2.268,12.108-2.81s2.472-1.634,3.874-1.789a.48.48,0,0,1,.5.656c-.656,1.628-2.609,5.734.4,6.4,3.856.851,11.047-2.94,14.531-4.83,1.906-1.037,7.792-5.3,9.534-5.022,1.009.161,1.219,2.689,2.485.019,1.857-3.921,2.893-8.909,4.84-13.108C59.7,4.2,62.176-2.077,63.717.711c1.408,2.547-2.24,9.017-3.62,11.462-2.872,5.087-6.012,7.971-6.783,14.262-.065.52-.343,1.962.56,1.81,1.677-.278,6.43-2.426,8.234-3.231,3.549-1.581,6.879-3.611,10.329-5.384a1.368,1.368,0,0,1,1.284-.009c2.1,1.176-2.132,5.966-1.919,6.263ZM58.178,13.2c1.1-2.386,2.7-4.564,3.642-7.034.282-.74,1.485-3.7.535-4.1a78.6,78.6,0,0,0-3.788,8.587c-.183.5-1.077,2.265-.393,2.55ZM43.638,28.362c1.2,1.185,6.13-4.094,6.8-5.106.442-.659,1.612-2.441.938-3.1-1.1-.761-4.456,2.8-5.118,3.565-.551.634-3.326,3.952-2.624,4.645Zm29.7-7.733c-1.64-.337-3,1.232-3.834,2.03a18.409,18.409,0,0,0-3.28,4.465.514.514,0,0,0,.7.637,11.252,11.252,0,0,0,6.415-7.129ZM9.906,27.747c-.418-.421-8.284,2.33-7.733,4.168C5.2,33.49,10.5,31.834,9.906,27.747ZM27.553,13.358a1.664,1.664,0,0,0,1.383.8,49.812,49.812,0,0,0,5.5-.715,2.134,2.134,0,0,0,1.151-.709L35.141,12c-.851.755-7.6.464-7.584,1.358Z" transform="translate(0.003 -0.003)" fill="#304d47"/>
</svg>
