<svg xmlns="http://www.w3.org/2000/svg" width="164" height="156" viewBox="0 0 164 156">
  <g id="グループ_735" data-name="グループ 735" transform="translate(-940 -2671)">
    <g id="長方形_824" data-name="長方形 824" transform="translate(940 2671)" fill="#304e47" stroke="#707070" stroke-width="1" opacity="0.05">
      <rect width="164" height="156" stroke="none"/>
      <rect x="0.5" y="0.5" width="163" height="155" fill="none"/>
    </g>
    <path id="パス_354" data-name="パス 354" d="M223.7,748.395a1.728,1.728,0,0,0-1.728-1.728h-6.912a1.728,1.728,0,0,0-1.728,1.728v10.368a1.728,1.728,0,0,0,1.728,1.728h6.912a1.728,1.728,0,0,0,1.728-1.728Zm38.015,0a1.728,1.728,0,0,0-1.728-1.728h-6.912a1.728,1.728,0,0,0-1.728,1.728v10.368a1.728,1.728,0,0,0,1.728,1.728h6.912a1.728,1.728,0,0,0,1.728-1.728Z" transform="translate(784.476 2022.205)" fill="#467c6c"/>
    <path id="パス_355" data-name="パス 355" d="M221.641,85.333H174.987a4.32,4.32,0,0,0-4.32,4.32v52.7a3.385,3.385,0,0,0,3.456,3.456h48.382a3.385,3.385,0,0,0,3.456-3.456v-52.7A4.32,4.32,0,0,0,221.641,85.333Z" transform="translate(823.686 2629.972)" fill="#589c87"/>
    <path id="パス_356" data-name="パス 356" d="M134.912,391.774a2.592,2.592,0,0,1-2.592,2.592h-1.728A2.592,2.592,0,0,1,128,391.774v-5.182A2.592,2.592,0,0,1,130.592,384h1.728a2.592,2.592,0,0,1,2.592,2.592Zm55.294,0a2.592,2.592,0,0,1-2.592,2.592h-1.728a2.592,2.592,0,0,1-2.592-2.592v-5.182A2.592,2.592,0,0,1,185.886,384h1.728a2.592,2.592,0,0,1,2.592,2.592Z" transform="translate(862.897 2355.497)" fill="#ffdd95"/>
    <path id="パス_357" data-name="パス 357" d="M238.987,644.32m-4.32,0a4.32,4.32,0,1,0,4.32-4.32A4.32,4.32,0,0,0,234.667,644.32Z" transform="translate(764.87 2120.232)" fill="#ffdd95"/>
    <path id="パス_358" data-name="パス 358" d="M686.987,644.32m-4.32,0a4.32,4.32,0,1,0,4.32-4.32A4.32,4.32,0,0,0,682.667,644.32Z" transform="translate(353.157 2120.232)" fill="#ffdd95"/>
    <path id="パス_359" data-name="パス 359" d="M259.124,128h-43.2a2.592,2.592,0,0,0-2.592,2.592v27.647a4.32,4.32,0,0,0,4.32,4.32H257.4a4.32,4.32,0,0,0,4.32-4.32V130.592A2.592,2.592,0,0,0,259.124,128Z" transform="translate(784.476 2590.761)" fill="#c4c4c4"/>
    <path id="パス_360" data-name="パス 360" d="M261.716,138.368H213.333v-7.776A2.592,2.592,0,0,1,215.925,128h43.2a2.592,2.592,0,0,1,2.592,2.592Z" transform="translate(784.476 2590.761)" fill="#7dc3ad"/>
    <path id="パス_361" data-name="パス 361" d="M256,170.667h19.007v3.456H256Zm22.463,0h6.912v3.456h-6.912Z" transform="translate(745.265 2551.55)" fill="#beeedf"/>
    <path id="パス_362" data-name="パス 362" d="M291.157,378.218H277.333v-12.96a2.592,2.592,0,0,1,2.592-2.592h8.64a2.592,2.592,0,0,1,2.592,2.592Zm24.191,0H301.525v-12.96a2.592,2.592,0,0,1,2.592-2.592h8.64a2.592,2.592,0,0,1,2.592,2.592Z" transform="translate(725.659 2375.102)" fill="#9a9a9a"/>
    <path id="パス_363" data-name="パス 363" d="M558.866,456.64a2.609,2.609,0,0,1-.743-1.728c0-1.873,2.374-3.456,5.184-3.456s5.184,1.583,5.184,3.456a2.608,2.608,0,0,1-.743,1.728h3.891a5.534,5.534,0,0,0,.308-1.728c0-3.812-3.876-6.912-8.64-6.912s-8.64,3.1-8.64,6.912a5.532,5.532,0,0,0,.307,1.728Z" transform="translate(470.789 2296.68)" fill="#5f5f5f"/>
  </g>
</svg>
