<svg xmlns="http://www.w3.org/2000/svg" width="163" height="156" viewBox="0 0 163 156">
  <g id="グループ_732" data-name="グループ 732" transform="translate(-367 -2671)">
    <g id="長方形_822" data-name="長方形 822" transform="translate(367 2671)" fill="#304e47" stroke="#707070" stroke-width="1" opacity="0.05">
      <rect width="163" height="156" stroke="none"/>
      <rect x="0.5" y="0.5" width="162" height="155" fill="none"/>
    </g>
    <g id="Layer_27" data-name="Layer 27" transform="translate(424 2703)">
      <g id="Carry-On_Suitcase_Icon" data-name="Carry-On Suitcase Icon">
        <g id="Wheels">
          <path id="Right_Wheel" data-name="Right Wheel" d="M34.156,83.631a2.494,2.494,0,0,1,4.987,0v6.474a2.494,2.494,0,0,1-4.987,0Z" fill="#467c6c"/>
          <path id="Left_Wheel" data-name="Left Wheel" d="M9.975,83.631a2.494,2.494,0,0,1,4.987,0v6.474a2.494,2.494,0,0,1-4.987,0Z" fill="#467c6c"/>
        </g>
        <g id="Handle">
          <rect id="Right_Handle" data-name="Right Handle" width="3.196" height="18.998" transform="translate(30.382 4.529)" fill="#c4c4c4"/>
          <rect id="Left_Handle" data-name="Left Handle" width="3.196" height="18.998" transform="translate(15.491 4.675)" fill="#c4c4c4"/>
          <path id="Top_Handle" data-name="Top Handle" d="M13.6,2.338A2.338,2.338,0,0,1,15.94,0H33.028a2.338,2.338,0,1,1,0,4.675H15.94A2.338,2.338,0,0,1,13.6,2.338Z" fill="#ffdd95"/>
        </g>
        <g id="Suitcase_Body" data-name="Suitcase Body">
          <path id="Body" d="M0,31.378a7.851,7.851,0,0,1,7.851-7.851H41.419a7.851,7.851,0,0,1,7.851,7.851v47.64a7.851,7.851,0,0,1-7.851,7.851H7.851A7.851,7.851,0,0,1,0,79.018Z" fill="#7dc3ad"/>
          <g id="Suitcase_Stripes" data-name="Suitcase Stripes">
            <path id="Stripe" d="M2.418,30.466A2.416,2.416,0,0,1,4.834,28.05H7.71a2.416,2.416,0,0,1,2.416,2.416v49.31A2.416,2.416,0,0,1,7.71,82.192H4.834a2.416,2.416,0,0,1-2.416-2.416Z" fill="#589c87"/>
            <path id="Stripe-2" data-name="Stripe" d="M11.637,30.466a2.416,2.416,0,0,1,2.416-2.416H16.93a2.416,2.416,0,0,1,2.416,2.416v49.31a2.416,2.416,0,0,1-2.416,2.416H14.053a2.416,2.416,0,0,1-2.416-2.416Z" fill="#589c87"/>
            <path id="Stripe-3" data-name="Stripe" d="M20.856,30.466a2.416,2.416,0,0,1,2.416-2.416h2.877a2.416,2.416,0,0,1,2.416,2.416v49.31a2.416,2.416,0,0,1-2.416,2.416H23.272a2.416,2.416,0,0,1-2.416-2.416Z" fill="#589c87"/>
            <path id="Stripe-4" data-name="Stripe" d="M30.076,30.466a2.416,2.416,0,0,1,2.416-2.416h2.877a2.416,2.416,0,0,1,2.416,2.416v49.31a2.416,2.416,0,0,1-2.416,2.416H32.491a2.416,2.416,0,0,1-2.416-2.416Z" fill="#589c87"/>
            <path id="Stripe-5" data-name="Stripe" d="M39.295,30.466A2.416,2.416,0,0,1,41.71,28.05h2.877A2.416,2.416,0,0,1,47,30.466v49.31a2.416,2.416,0,0,1-2.416,2.416H41.71a2.416,2.416,0,0,1-2.416-2.416Z" fill="#589c87"/>
          </g>
        </g>
        <g id="Plane_Stamp" data-name="Plane Stamp">
          <path id="Plane_Stamp-2" data-name="Plane Stamp" d="M41.674,43.618a6.95,6.95,0,1,1-3.554-9.147,6.95,6.95,0,0,1,3.554,9.147Z" fill="#ffdd95"/>
          <path id="Plane" d="M39.092,37.524a.681.681,0,0,0-1.136-.333l-1.879,1.815-3.544-.95a.514.514,0,0,0-.6.285l-.009.019a.514.514,0,0,0,.22.662L34.636,40.4,33.05,41.931A.745.745,0,0,0,33,42l-.945-.249a.432.432,0,0,0-.313.8l1.269.663.623,1.194a.429.429,0,0,0,.571.186.435.435,0,0,0,.228-.5l-.265-1.007c.006-.006.014-.007.019-.013l1.534-1.6L37.119,44a.514.514,0,0,0,.661.22l.019-.009a.514.514,0,0,0,.285-.6l-.961-3.588,1.8-1.869a.682.682,0,0,0,.172-.63Z" fill="#589c87"/>
        </g>
      </g>
    </g>
  </g>
</svg>
