<svg xmlns="http://www.w3.org/2000/svg" width="164" height="156" viewBox="0 0 164 156">
  <g id="グループ_734" data-name="グループ 734" transform="translate(-749 -2671)">
    <g id="長方形_822" data-name="長方形 822" transform="translate(749 2671)" fill="#304e47" stroke="#707070" stroke-width="1" opacity="0.05">
      <rect width="164" height="156" stroke="none"/>
      <rect x="0.5" y="0.5" width="163" height="155" fill="none"/>
    </g>
    <g id="book-education-study-svgrepo-com" transform="translate(794.164 2724.323)">
      <path id="パス_337" data-name="パス 337" d="M36.836,58.035H33.177l-2.44-2.44H10V19h4.879V48.276S29.7,44.616,36.836,58.035Z" transform="translate(0 1.319)" fill="#589c87"/>
      <path id="パス_338" data-name="パス 338" d="M53.957,48.276V19h4.879V55.595H38.1l-2.44,2.44H32C39.136,44.616,53.957,48.276,53.957,48.276Z" transform="translate(4.836 1.319)" fill="#589c87"/>
      <path id="パス_339" data-name="パス 339" d="M35.957,59.134C28.821,45.716,14,49.375,14,49.375V16.44L21.319,14V44.5A14.634,14.634,0,0,1,35.957,59.134Z" transform="translate(0.879 0.22)" fill="#7dc3ad"/>
      <path id="パス_340" data-name="パス 340" d="M46.638,14l7.319,2.44V49.375S39.136,45.716,32,59.134A14.634,14.634,0,0,1,46.638,44.5Z" transform="translate(4.836 0.22)" fill="#7dc3ad"/>
      <path id="パス_341" data-name="パス 341" d="M34.638,27.638A14.634,14.634,0,0,0,20,13V44.716A14.634,14.634,0,0,1,34.638,59.354,14.634,14.634,0,0,1,49.276,44.716V13A14.634,14.634,0,0,0,34.638,27.638Z" transform="translate(2.198)" fill="#beefe0"/>
    </g>
    <path id="合体_1" data-name="合体 1" d="M-4081.525,2674.951A10.5,10.5,0,0,1-4091,2664.5a10.5,10.5,0,0,1,10.5-10.5,10.5,10.5,0,0,1,10.5,10.5,10.5,10.5,0,0,1-8.395,10.289L-4080,2678Z" transform="translate(4912 60)" fill="#ffdd95"/>
    <path id="パス_354" data-name="パス 354" d="M5162.382-44.855h0a.751.751,0,0,1-.532-.225l-3.419-3.486,1.071-1.05,2.889,2.946,5.045-5.046,1.061,1.061-5.581,5.581A.75.75,0,0,1,5162.382-44.855Z" transform="translate(-4331.96 2772.785)" fill="#589c87"/>
  </g>
</svg>
